#!OML:ASF E:\motion texture\Top Level 1\Subject 1\Session 1\male.ASF
:FULLY-SPECIFIED
:DEGREES
353
root 17.3976 17.642 5.05417 496.341 -77.7103 -491.88
lowerback -3.87434 3.50896 6.75501
upperback -3.54729 4.38105 2.69824
thorax -1.20365 2.02785 -0.852884
lowerneck -18.5553 -6.20555 -8.34973
upperneck 16.9577 -8.29972 9.29338
head 9.13618 -3.51188 3.41937
rclavicle -1.56729e-014 4.71617e-014
rhumerus -8.68427 23.4646 -84.4235
rradius 75.3267
rwrist -7.55907
rhand -16.321 -11.0975
rfingers 7.12502
rthumb 9.89048 -40.8452
lclavicle -1.56729e-014 4.71617e-014
lhumerus -58.6139 -2.51077 75.5379
lradius 35.7999
lwrist -10.397
lhand -14.1696 8.41744
lfingers 7.12502
lthumb 11.9656 38.0554
rfemur 8.88507 4.84724 33.6345
rtibia 22.3922
rfoot -193.932 -181.622
rtoes -6.23527
lfemur -43.8499 9.16752 -9.87555
ltibia 54.1225
lfoot 368.651 -2.26499
ltoes -7.68896
354
root 17.2144 17.6095 5.07345 497.616 -77.78 -492.98
lowerback -4.27149 3.4764 6.66155
upperback -3.70388 4.30569 2.61963
thorax -1.14952 1.98756 -0.866054
lowerneck -18.4905 -6.09963 -8.22663
upperneck 17.1477 -8.20347 9.24759
head 9.17291 -3.4653 3.40014
rclavicle 3.16813e-016 3.47873e-015
rhumerus -10.9288 23.4132 -85.4645
rradius 74.5053
rwrist -7.38042
rhand -16.3703 -11.2264
rfingers 7.12502
rthumb 9.8429 -40.9763
lclavicle 3.16813e-016 3.47873e-015
lhumerus -57.5717 -1.62713 76.046
lradius 35.4986
lwrist -10.3643
lhand -14.5555 8.93371
lfingers 7.12502
lthumb 11.5934 38.593
rfemur 8.69475 4.6134 33.0393
rtibia 23.455
rfoot -193.669 -181.129
rtoes -7.13551
lfemur -41.0791 8.76312 -10.0207
ltibia 51.2528
lfoot 365.993 -2.84475
ltoes -8.4353
355
root 17.0305 17.579 5.09461 498.867 -77.9256 -494.081
lowerback -4.63875 3.41693 6.51271
upperback -3.86253 4.20052 2.53188
thorax -1.11913 1.93295 -0.862221
lowerneck -18.4414 -5.99263 -8.08961
upperneck 17.3737 -8.10872 9.18745
head 9.22389 -3.41927 3.37337
rclavicle -1.33558e-015 2.3556e-014
rhumerus -13.2208 23.3124 -86.4815
rradius 73.5985
rwrist -7.21788
rhand -16.4516 -11.3608
rfingers 7.12502
rthumb 9.76447 -41.1144
lclavicle -1.33558e-015 2.3556e-014
lhumerus -56.4878 -0.764598 76.6514
lradius 35.2043
lwrist -10.1749
lhand -14.9782 9.50295
lfingers 7.12502
lthumb 11.1858 39.1848
rfemur 8.31792 4.2713 32.3203
rtibia 24.849
rfoot -193.22 -180.529
rtoes -8.02309
lfemur -38.4253 8.31826 -10.3378
ltibia 48.5497
lfoot 362.963 -3.23064
ltoes -8.56319
356
root 16.8485 17.5521 5.11715 500.053 -78.1824 -495.156
lowerback -4.93764 3.31739 6.28089
upperback -4.01886 4.05346 2.43367
thorax -1.13133 1.85862 -0.830358
lowerneck -18.421 -5.88589 -7.93698
upperneck 17.6274 -8.01571 9.11236
head 9.28873 -3.37345 3.33825
rclavicle 3.04451e-014 2.39536e-014
rhumerus -15.5471 23.1426 -87.4575
rradius 72.6101
rwrist -7.05888
rhand -16.5603 -11.4777
rfingers 7.12502
rthumb 9.65957 -41.2363
lclavicle 3.04451e-014 2.39536e-014
lhumerus -55.353 0.0513588 77.3745
lradius 34.9385
lwrist -9.82838
lhand -15.3813 10.0656
lfingers 7.12502
lthumb 10.797 39.7681
rfemur 7.73363 3.80273 31.4668
rtibia 26.6013
rfoot -192.508 -179.849
rtoes -8.86363
lfemur -35.9321 7.85019 -10.857
ltibia 46.0161
lfoot 359.872 -3.29331
ltoes -7.90942
357
root 16.6704 17.5305 5.14072 501.195 -78.5616 -496.247
lowerback -5.14195 3.17341 5.94996
upperback -4.15795 3.86165 2.32581
thorax -1.18548 1.76438 -0.761551
lowerneck -18.4284 -5.77969 -7.77437
upperneck 17.8848 -7.92249 9.02947
head 9.35947 -3.32669 3.29834
rclavicle -5.59082e-016 1.93815e-014
rhumerus -17.8802 22.8916 -88.3715
rradius 71.5392
rwrist -6.88276
rhand -16.6883 -11.5639
rfingers 7.12502
rthumb 9.53608 -41.3281
lclavicle -5.59082e-016 1.93815e-014
lhumerus -54.1477 0.806492 78.2247
lradius 34.7241
lwrist -9.38668
lhand -15.704 10.702
lfingers 7.12502
lthumb 10.4857 40.4205
rfemur 6.93536 3.2054 30.4735
rtibia 28.7274
rfoot -191.43 -179.105
rtoes -9.51934
lfemur -33.6023 7.3709 -11.572
ltibia 43.6307
lfoot 357.027 -3.02132
ltoes -6.4429
358
root 16.4987 17.5151 5.1649 502.218 -79.0933 -497.279
lowerback -5.2385 2.97593 5.50863
upperback -4.27635 3.61409 2.20653
thorax -1.28503 1.64544 -0.651576
lowerneck -18.4731 -5.68509 -7.61145
upperneck 18.1452 -7.84405 8.95115
head 9.4401 -3.28504 3.25719
rclavicle 2.7103e-014 2.73826e-014
rhumerus -20.1984 22.5403 -89.2024
rradius 70.3868
rwrist -6.64876
rhand -16.8357 -11.6025
rfingers 7.12502
rthumb 9.39392 -41.3731
lclavicle 2.7103e-014 2.73826e-014
lhumerus -52.8554 1.46971 79.2104
lradius 34.5792
lwrist -8.91698
lhand -16.0292 11.2194
lfingers 7.12502
lthumb 10.172 40.9535
rfemur 5.89038 2.46575 29.3506
rtibia 31.2399
rfoot -189.874 -178.357
rtoes -9.88771
lfemur -31.4726 6.84385 -12.4632
ltibia 41.4084
lfoot 354.662 -2.51088
ltoes -4.24382
359
root 16.3347 17.5063 5.18915 503.081 -79.7658 -498.219
lowerback -5.21391 2.72965 4.96819
upperback -4.36237 3.31569 2.08318
thorax -1.423 1.50487 -0.49759
lowerneck -18.5591 -5.60987 -7.47094
upperneck 18.3889 -7.78726 8.89728
head 9.527 -3.2511 3.22428
rclavicle 1.87727e-014 2.3556e-014
rhumerus -22.4953 22.0669 -89.9214
rradius 69.1799
rwrist -6.32984
rhand -16.9791 -11.6114
rfingers 7.12502
rthumb 9.25549 -41.3883
lclavicle 1.87727e-014 2.3556e-014
lhumerus -51.4726 1.96676 80.3931
lradius 34.534
lwrist -8.32039
lhand -16.4771 11.6496
lfingers 7.12502
lthumb 9.73991 41.4044
rfemur 4.60382 1.59623 28.1344
rtibia 34.1191
rfoot -187.754 -177.683
rtoes -9.82262
lfemur -29.5387 6.23607 -13.4689
ltibia 39.3632
lfoot 352.914 -1.91415
ltoes -1.69882
360
root 16.1792 17.5038 5.21337 503.68 -80.5652 -498.957
lowerback -5.07247 2.44313 4.3618
upperback -4.40878 2.97346 1.95828
thorax -1.58573 1.34601 -0.312675
lowerneck -18.6838 -5.56473 -7.37338
upperneck 18.594 -7.76459 8.88991
head 9.615 -3.22991 3.20879
rclavicle -9.85848e-015 -4.02539e-015
rhumerus -24.7446 21.4432 -90.5027
rradius 67.9271
rwrist -5.88364
rhand -17.1052 -11.6008
rfingers 7.12502
rthumb 9.13388 -41.383
lclavicle -9.85848e-015 -4.02539e-015
lhumerus -49.9721 2.32782 81.6854
lradius 34.5991
lwrist -7.99305
lhand -16.6497 11.9019
lfingers 7.12502
lthumb 9.57339 41.6644
rfemur 3.07578 0.621427 26.8749
rtibia 37.3417
rfoot -185.038 -177.172
rtoes -9.02635
lfemur -27.8128 5.50052 -14.5233
ltibia 37.533
lfoot 351.733 -1.381
ltoes 0.420736
361
root 16.0327 17.5066 5.23705 503.986 -81.4453 -499.445
lowerback -4.82068 2.1345 3.72107
upperback -4.45253 2.60681 1.84108
thorax -1.8047 1.17632 -0.102509
lowerneck -18.6937 -5.54351 -7.3409
upperneck 18.6943 -7.76943 8.94318
head 9.65356 -3.22399 3.2221
rclavicle -1.44631e-014 -2.44257e-014
rhumerus -27.024 20.6571 -90.9572
rradius 66.6599
rwrist -5.31461
rhand -17.2069 -11.5986
rfingers 7.12502
rthumb 9.03566 -41.3851
lclavicle -1.44631e-014 -2.44257e-014
lhumerus -48.4352 2.45053 83.154
lradius 34.7843
lwrist -7.69339
lhand -16.8946 11.9709
lfingers 7.12502
lthumb 9.33705 41.7441
rfemur 1.3087 -0.401077 25.634
rtibia 40.8723
rfoot -181.786 -176.904
rtoes -7.70491
lfemur -26.3005 4.64687 -15.5599
ltibia 35.9787
lfoot 350.927 -0.964163
ltoes 2.08845
362
root 15.8935 17.5132 5.26007 503.91 -82.3734 -499.589
lowerback -4.48402 1.82293 3.08511
upperback -4.44526 2.23579 1.72803
thorax -2.01265 1.00708 0.111668
lowerneck -18.7699 -5.56319 -7.36307
upperneck 18.7317 -7.81785 9.05467
head 9.6914 -3.23394 3.25684
rclavicle -4.91138e-017 -1.28589e-015
rhumerus -29.226 19.699 -91.2341
rradius 65.3991
rwrist -4.64993
rhand -17.2765 -11.6607
rfingers 7.12502
rthumb 8.96853 -41.45
lclavicle -4.91138e-017 -1.28589e-015
lhumerus -46.7801 2.2697 84.8038
lradius 35.124
lwrist -7.3785
lhand -17.1655 11.8687
lfingers 7.12502
lthumb 9.07565 41.6535
rfemur -0.664298 -1.42056 24.463
rtibia 44.6623
rfoot -178.32 -176.873
rtoes -5.82435
lfemur -24.9907 3.70053 -16.537
ltibia 34.7519
lfoot 350.378 -0.706681
ltoes 3.21878
363
root 15.7608 17.5222 5.28189 503.547 -83.3038 -499.469
lowerback -4.09991 1.52503 2.46687
upperback -4.39269 1.87878 1.62094
thorax -2.19419 0.846529 0.326529
lowerneck -18.8415 -5.62011 -7.44155
upperneck 18.6681 -7.9035 9.21693
head 9.70139 -3.26034 3.31226
rclavicle -6.43876e-015 -6.72141e-015
rhumerus -31.3654 18.5754 -91.3361
rradius 64.1736
rwrist -3.96149
rhand -17.3013 -11.7848
rfingers 7.12502
rthumb 8.94459 -41.5752
lclavicle -6.43876e-015 -6.72141e-015
lhumerus -45.0441 1.75506 86.5985
lradius 35.6228
lwrist -7.02524
lhand -17.4476 11.5906
lfingers 7.12502
lthumb 8.80345 41.387
rfemur -2.82559 -2.37114 23.3928
rtibia 48.6773
rfoot -175.012 -176.949
rtoes -3.69301
lfemur -23.8614 2.72555 -17.4366
ltibia 33.8604
lfoot 349.972 -0.62538
ltoes 3.82796
364
root 15.6336 17.5324 5.30222 503.026 -84.2028 -499.208
lowerback -3.68765 1.25262 1.87432
upperback -4.29532 1.5502 1.51735
thorax -2.33933 0.701058 0.535569
lowerneck -18.9394 -5.70349 -7.55329
upperneck 18.5359 -8.01259 9.40537
head 9.69736 -3.29658 3.37774
rclavicle 1.09611e-014 1.20762e-014
rhumerus -33.4267 17.3171 -91.2641
rradius 63.0085
rwrist -3.34107
rhand -17.3449 -11.8932
rfingers 7.12502
rthumb 8.90253 -41.6854
lclavicle 1.09611e-014 1.20762e-014
lhumerus -43.259 0.874621 88.4964
lradius 36.3163
lwrist -6.57611
lhand -17.6495 11.2222
lfingers 7.12502
lthumb 8.60855 41.0267
rfemur -5.15541 -3.2045 22.439
rtibia 52.8845
rfoot -172.236 -177.062
rtoes -1.40904
lfemur -22.8656 1.78904 -18.2586
ltibia 33.2273
lfoot 349.642 -0.708044
ltoes 4.17007
365
root 15.5104 17.5431 5.32074 502.695 -85.0378 -499.147
lowerback -3.27041 1.01545 1.30417
upperback -4.15051 1.26253 1.41554
thorax -2.43346 0.57637 0.738694
lowerneck -19.0794 -5.802 -7.6745
upperneck 18.3497 -8.12912 9.59138
head 9.68352 -3.33595 3.44151
rclavicle -9.23417e-015 -5.06901e-015
rhumerus -35.3973 15.9742 -91.0329
rradius 61.924
rwrist -2.88125
rhand -17.4266 -11.9873
rfingers 7.12502
rthumb 8.8237 -41.7828
lclavicle -9.23417e-015 -5.06901e-015
lhumerus -41.4479 -0.352077 90.4287
lradius 37.2143
lwrist -6.00583
lhand -17.7867 10.8619
lfingers 7.12502
lthumb 8.47623 40.6718
rfemur -7.63044 -3.88296 21.5976
rtibia 57.2464
rfoot -170.271 -177.167
rtoes 0.804519
lfemur -21.9367 0.976138 -19.0198
ltibia 32.7351
lfoot 349.364 -0.917998
ltoes 4.38109
366
root 15.3905 17.5542 5.33699 502.809 -85.8125 -499.538
lowerback -2.85896 0.806673 0.745451
upperback -3.96314 1.00708 1.31426
thorax -2.47686 0.467601 0.939734
lowerneck -19.273 -5.90284 -7.78286
upperneck 18.1401 -8.23765 9.74905
head 9.66891 -3.37186 3.4932
rclavicle -3.91357e-015 4.96962e-017
rhumerus -37.2721 14.5935 -90.6619
rradius 60.9404
rwrist -2.62925
rhand -17.545 -12.0238
rfingers 7.12502
rthumb 8.70945 -41.8242
lclavicle -3.91357e-015 4.96962e-017
lhumerus -39.6492 -1.90192 92.3301
lradius 38.332
lwrist -5.2894
lhand -17.7987 10.4982
lfingers 7.12502
lthumb 8.46462 40.3086
rfemur -10.2291 -4.41936 20.8556
rtibia 61.7145
rfoot -169.214 -177.265
rtoes 2.86292
lfemur -21.021 0.327157 -19.7459
ltibia 32.2887
lfoot 349.128 -1.21625
ltoes 4.56599
